<svg id="Layer_1" data-name="Layer 1" xmlns="http://www.w3.org/2000/svg" viewBox="0 0 376.62 178"><defs><style>.cls-1{fill:#2e286c;}.cls-2{fill:#7a68ac;}.cls-3{opacity:0.75;}.cls-4{fill:#a590c4;}</style></defs><circle class="cls-1" cx="168.62" cy="89" r="53"/><circle class="cls-1" cx="109.12" cy="99.5" r="46.5"/><circle class="cls-1" cx="155.62" cy="66" r="66"/><circle class="cls-1" cx="228.12" cy="86.5" r="52.5"/><circle class="cls-1" cx="212.62" cy="47" r="37"/><path class="cls-2" d="M179.74,463.47V427.33H142.39v36.14h-23.2V373.53h23.2V407.1h37.35V373.53h23.2v89.94Z" transform="translate(-119.19 -349.5)"/><path class="cls-2" d="M280.21,463.47l-4.45-12.94H240.29l-4.45,12.94h-26.3l33.85-89.94h29.13l34,89.94Zm-22.25-67L246.49,430.3h22.93Z" transform="translate(-119.19 -349.5)"/><path class="cls-2" d="M310.28,463.47V445l38.3-51.25h-38.3V373.53h68.91V392l-38.44,51.25h39.38v20.22Z" transform="translate(-119.19 -349.5)"/><path class="cls-2" d="M393.48,463.47V373.53h65.94v20.22H416.67v14h41.81V428H416.67v15.24h42.75v20.22Z" transform="translate(-119.19 -349.5)"/><g class="cls-3"><circle class="cls-4" cx="241.62" cy="121" r="53"/><circle class="cls-4" cx="182.12" cy="131.5" r="46.5"/><circle class="cls-4" cx="224.62" cy="97" r="56"/><circle class="cls-4" cx="281.12" cy="131.5" r="35.5"/><circle class="cls-4" cx="327.12" cy="119.5" r="49.5"/><circle class="cls-4" cx="285.62" cy="66" r="50"/></g></svg>